{"title":"Michael Jackson - Smooth Criminal 720P by RoYStaR","uid":6567994,"size":422879109,"categoryP":"video","categoryS":"music_videos","magnet":"?xt=urn:btih:154731b68c3a9eb195e39968081b6134204d9544&amp;dn=Michael+Jackson+-+Smooth+Criminal+720P+by+RoYStaR&amp;tr=udp%3A%2F%2Ftracker.openbittorrent.com%3A80&amp;tr=udp%3A%2F%2Fopen.demonii.com%3A1337&amp;tr=udp%3A%2F%2Ftracker.coppersurfer.tk%3A6969&amp;tr=udp%3A%2F%2Fexodus.desync.com%3A6969","seeders":1,"leechers":0,"uploader":"royhere","files":12,"time":1311762597,"description":"&quot;Smooth Criminal&quot; is the seventh single from Michael Jackson's 1987 Bad album. The song contains a fast-paced beat intertwined with Jackson's lyrics about a woman named Annie, who has been attacked in her apartment by a &quot;smooth&quot; assailant. It was released as a single on October 24, 1988 and peaked at No. 7 on the Billboard Hot 100.\n\n\nGeneral\nComplete name                    : D:\\TOORENT FOR UPLOAD\\Michael Jackson - Smooth Criminal 720P by RoYStaR\\Michael Jackson - Smooth Criminal 720P by RoYStaR.mp4\nFormat                           : MPEG-4\nFormat profile                   : Base Media\nCodec ID                         : isom\nFile size                        : 388 MiB\nDuration                         : 9mn 55s\nOverall bit rate                 : 5 467 Kbps\nEncoded date                     : UTC 2011-07-27 08:02:12\nTagged date                      : UTC 2011-07-27 08:02:12\nWriting application              : Lavf51.12.1\n\nVideo\nID                               : 1\nFormat                           : MPEG-4 Visual\nFormat profile                   : Simple@L1\nFormat settings, BVOP            : No\nFormat settings, QPel            : No\nFormat settings, GMC             : No warppoints\nFormat settings, Matrix          : Default (H.263)\nCodec ID                         : 20\nDuration                         : 9mn 55s\nBit rate mode                    : Variable\nBit rate                         : 5 334 Kbps\nWidth                            : 1 280 pixels\nHeight                           : 720 pixels\nDisplay aspect ratio             : 16:9\nFrame rate mode                  : Constant\nFrame rate                       : 25.000 fps\nColor space                      : YUV\nChroma subsampling               : 4:2:0\nBit depth                        : 8 bits\nScan type                        : Progressive\nCompression mode                 : Lossy\nBits/(Pixel*Frame)               : 0.232\nStream size                      : 378 MiB (98%)\nWriting library                  : Lavc51.40.4\nLanguage                         : English\nEncoded date                     : UTC 2011-07-27 08:02:12\nTagged date                      : UTC 2011-07-27 08:02:12\n\nAudio\nID                               : 2\nFormat                           : AAC\nFormat/Info                      : Advanced Audio Codec\nFormat profile                   : LC\nCodec ID                         : 40\nDuration                         : 9mn 55s\nBit rate mode                    : Variable\nBit rate                         : 128 Kbps\nChannel(s)                       : 2 channels\nChannel positions                : Front: L R\nSampling rate                    : 44.1 KHz\nCompression mode                 : Lossy\nStream size                      : 9.08 MiB (2%)\nEncoded date                     : UTC 2011-07-27 08:02:12\nTagged date                      : UTC 2011-07-27 08:02:12\n\nFull 9.55 Minutes .\n\n\nThis is quality upload. . . . . . . \n\nBecause i am upload only quality torrent....\n\n\n\n\nENJOY................ *RoY StaR*\n","torrent":{"xt":"urn:btih:154731b68c3a9eb195e39968081b6134204d9544","amp;dn":"Michael+Jackson+-+Smooth+Criminal+720P+by+RoYStaR","amp;tr":["udp%3A%2F%2Ftracker.openbittorrent.com%3A80","udp%3A%2F%2Fopen.demonii.com%3A1337","udp%3A%2F%2Ftracker.coppersurfer.tk%3A6969","udp%3A%2F%2Fexodus.desync.com%3A6969"],"infoHash":"154731b68c3a9eb195e39968081b6134204d9544","infoHashBuffer":{"type":"Buffer","data":[21,71,49,182,140,58,158,177,149,227,153,104,8,27,97,52,32,77,149,68]},"announce":[],"urlList":[]}}